<svg height="1376" viewBox="-305 -516 610 820" width="1024" xmlns="http://www.w3.org/2000/svg" xmlns:xlink="http://www.w3.org/1999/xlink"><clipPath id="a"><circle r="298"/></clipPath><circle fill="#900" r="100"/><g fill="#069"><g id="b" clip-path="url(#a)"><path d="m-11 180v118h22v-118"/><path d="m-43 185 43-75 43 75"/></g><g id="c"><use transform="matrix(.70710678 .70710678 -.70710678 .70710678 0 0)" xlink:href="#b"/><use transform="rotate(90)" xlink:href="#b"/><use transform="matrix(-.70710678 .70710678 -.70710678 -.70710678 0 0)" xlink:href="#b"/></g><use transform="scale(-1 1)" xlink:href="#c"/><path d="m0-256a256 256 0 1 0 256 256c0-100-101-150-6-275" fill="none" stroke="#069" stroke-width="84" transform="matrix(.70710678 -.70710678 .70710678 .70710678 0 0)"/><path d="m-23-515s-36 135-80 185 116-62 170-5-90-180-90-180z"/></g></svg>