<svg height="168" viewBox="0 0 220 168.001" width="220" xmlns="http://www.w3.org/2000/svg"><path d="m34.782398 67.970299h143.037v33.704102h-143.037z" fill="#ccc"/><path d="m177.87 134.236c-56.2419-.54803-60.7278-6.639-68.692-25.7918-9.15003-22.0087-28.4292-36.684-74.3955-36.684v33.7041c22.8048.61299 32.3316-3.83151 53.1132 34.7564 14.1107 26.2017 50.7569 28.2237 89.9743 27.7194z" fill="#ccc"/><g fill="#999"><path d="m179.376 41.2135c-51.7207.959059-61.2309 16.389-73.0751 32.8194-11.2241 15.5729-25.5521 27.6414-71.5184 27.6414v-33.7041c22.8048-.612994 40.121-7.05239 54.3215-28.9702 16.1812-24.978 51.0545-31.995 90.272-31.4907v33.7041z"/><circle cx="27.3332" cy="87.904999" r="27.3332"/><path d="m176.499 0 43.502 24.4005-43.502 24.2505z"/></g></svg>