<svg height="44" width="44" xmlns="http://www.w3.org/2000/svg" xmlns:xlink="http://www.w3.org/1999/xlink"><linearGradient id="a" gradientUnits="userSpaceOnUse" x1="40.778842" x2="3.616085" y1="21.688506" y2="29.289904"><stop offset="0" stop-color="#bbb"/><stop offset="1" stop-color="#f4f4f4"/></linearGradient><g fill-rule="evenodd" transform="translate(-2.152456 -2.693715)"><path d="m12.60406 33.140217c1.448219 5.358355 1.018045 6.99805 7.406335 6.366123 6.038263-.597301 8.646644-3.597889 5.572737-5.295537-3.14141-1.734929-.281406-3.426817 1.652661-4.145393s4.445625-1.500777 5.967511-.471754-1.589147 2.763753.09193 4.747016c1.702773 2.00886 8.784655-1.91781 11.212733-3.17572 2.358125-1.221669.240965-4.811414-1.273961-7.331797-1.553772-2.585011-3.533748-2.776121-5.044916-.671375-1.4696 2.04685-2.957045 1.034169-4.038466-1.6336-1.050722-2.592037.415412-3.420225 2.305954-2.351862 1.890542 1.068362 5.338094-.186655 1.823861-5.466053-3.554898-5.3404868-3.462023-.514148-9.348182.007457-5.973864.529378.140725-5.3540758-8.767694-3.656052-8.823115 1.681764 2.943719 5.338317-3.169004 6.109272-6.199718.781928-10.2606416.525109-8.149791 2.739557 2.069242 2.1708 3.087078 5.232478 1.0590408 6.262719-2.0280364 1.030241-8.3340895-2.815756-6.9726015 4.692551 1.3585852 7.492302 8.2294787-2.06228 9.6718527 3.274448z" fill="url(#a)" stroke="#555753"/><path d="m22.84559 10.166053c-.683419.002602-1.5583.140816-2.65625.3125-8.120423 1.266317 2.789073 5.017164-2.452934 5.924556-6.037322 1.040674-10.7104314.538398-8.6408162 2.700444 2.0288172 2.119432 3.7245802 4.997397.9218752 6.53125-2.0160183 1.103318-8.022391-2.736883-6.7031252 4.15625.4212012 2.195778 1.4293546 2.68113 2.359375 2.5625-.6294047-.372311-1.1192209-.790817-1.390625-2.28125-1.3348908-7.330633 3.3196403-2.359336 6.2768082-3.771447 2.010854-.960226 2.360004-4.398874.331187-6.518305-2.0696152-2.162046 1.8993-1.791493 7.977904-2.554918 5.993308-.752712-5.711683-4.87921 2.320351-6.49908 1.540404-.30981 2.604746-.343991 3.375-.25-.39458-.196789-.921428-.315535-1.71875-.3125zm12.165403 1.459597c-4.426223 3.102647-6.659448 2.576306-7.330806 2.636374 2.347136 1.425189 6.028649-.986607 8.839039-2.001571-.372159-.4366-1.190982-.671089-1.508233-.634803zm5.49908 10.559359c-.750696.032935-1.476779.507214-2.125 1.40625-.450278.624505-1.079514 1.058809-1.520527 1.141735.739833.49794 1.720298.218127 2.520527-.891735.685262-.95041 1.167648-1.393014 1.962738-1.375-.372227-.201683-.463615-.297664-.837738-.28125zm-7.191827 6.895106c2.317157 1.459441-1.192349 3.30526.371094 4.960938.319437.338282.662211.365011 1.382813.359375-.143146-.07936-.330623-.074932-.4375-.195313-1.476362-1.662894 1.484342-3.565639-.007813-4.570312-.397321-.267518-.802684-.503372-1.308594-.554688zm-21.425781 2.148438c.365726.248311.915717 1.067741 1.109375 1.78125 1.080786 3.982032 1.175794 5.875301 3.8125 6.078125-1.71993-.716854-1.887359-2.419552-2.8125-5.828125-.344798-1.270368-1.287267-2.03746-2.109375-2.03125z" fill="#fff"/><path d="m17.808421 20.865915c.099557.127193.095471.393669.322991.348899.231475.032442.547126-.075747.704548.075812 1.97382 1.90032 3.830526 3.973024 5.74579 5.959538.209393.014954.408752.020913.339342-.214072.064224-1.551962.128447-3.103923.192672-4.655884 1.26753 1.327303 2.535061 2.654603 3.802593 3.981906.153381-.049929.43103-.010926.344917-.232248-.039859-2.196887-.186771-4.42561-.119575-6.590659.008389-.270316.129015-.577121.328691-.730601.1379-.105996.359606-.102727.190671-.308487-.07775-.151321-.331608.032058-.484237.023049-.646119.135642-1.29224.271284-1.938362.406925.058039.184574.127284.35139.358978.260851.170639.013592.367828-.088644.521824-.00244.188989.108083.246552.235911.250566.42601.032169 1.524769.15077 3.066785.226156 4.600178-1.200554-1.246343-2.401105-2.492688-3.601659-3.739033-.165075-.185386-.222705-.388607-.135869-.486056.163209-.183156.423617-.345613.738196-.364.110512-.004897-.038473-.390982-.160386-.317169-1.152792.242009-2.305584.484018-3.458375.726027.080257.173728.179952.314739.398968.254889.250949-.001732.50237-.013033.747296.107648.277222.061066.400454.334403.599904.502673.266745.278942.53349.557882.800234.836821-.065659 1.190562-.131317 2.381121-.196976 3.571682-1.224054-1.33643-2.537249-2.647555-3.672165-4.009289-.122194-.146615-.137336-.342438-.029994-.499869.097495-.142992.213085-.211569.403375-.221336.255856.03754-.011704-.275648-.079039-.32772-1.047026.205319-2.094051.410638-3.141075.615955z"/></g></svg>