<?xml version="1.0" encoding="utf-8"?>
<!-- Generator: Adobe Illustrator 21.1.0, SVG Export Plug-In . SVG Version: 6.00 Build 0)  -->
<svg version="1.1" id="Calque_1" xmlns="http://www.w3.org/2000/svg" xmlns:xlink="http://www.w3.org/1999/xlink" x="0px" y="0px"
	 viewBox="0 0 432 432" style="enable-background:new 0 0 432 432;" xml:space="preserve">
<style type="text/css">
	.st0{fill:#A2CB68;}
	.st1{fill:#57689A;}
	.st2{fill:#1A1A1A;}
	.st3{fill:#B7AC82;}
	.st4{fill:#496B59;}
	.st5{fill:#77B192;}
	.st6{fill:#5E846F;}
	.st7{fill:#534741;}
	.st8{fill:#33332E;}
	.st9{fill:#EBB35B;}
	.st10{fill:#736357;}
	.st11{fill:#9FC07E;}
	.st12{fill:#E484B4;}
	.st13{fill:#81C5D2;}
	.st14{fill:#D6CDBF;}
	.st15{fill:#8C3F42;}
	.st16{fill:#714A4C;}
	.st17{fill:#562428;}
	.st18{fill:#AAB272;}
	.st19{fill:#9E5F81;}
	.st20{fill:#BC758D;}
	.st21{fill:#7BADE5;}
	.st22{fill:#E0954B;}
	.st23{fill:#88729B;}
	.st24{fill:#FBB03B;}
	.st25{fill:#7DCCC3;}
	.st26{fill:#E990A4;}
	.st27{fill:#C03039;}
	.st28{fill:#0071BC;}
	.st29{fill:#FAAC47;}
	.st30{fill:#7BC0D6;}
	.st31{fill:#C683A6;}
	.st32{fill:#DDC36C;}
	.st33{fill:#C4AD6C;}
	.st34{fill:#3C503E;}
	.st35{fill:#DDB42B;}
	.st36{fill:#787861;}
	.st37{fill:#80615A;}
	.st38{fill:#4F7181;}
	.st39{fill:#93BBCE;}
	.st40{fill:#AAB4B8;}
	.st41{fill:#5C6D75;}
	.st42{fill:#BFA08A;}
	.st43{fill:#333333;}
	.st44{fill:#895573;}
	.st45{fill:#D699BC;}
	.st46{fill:#D8B45B;}
	.st47{fill:#B2B0A1;}
	.st48{fill:#998675;}
	.st49{fill:#A38AA1;}
	.st50{fill:#95A78E;}
	.st51{fill:#9595A0;}
	.st52{fill:#ACA196;}
	.st53{fill:#69786B;}
	.st54{fill:#466E71;}
	.st55{fill:#88BABE;}
	.st56{fill:#998073;}
	.st57{fill:#DBB57B;}
	.st58{fill:#C1272D;}
	.st59{fill:#CCCCCC;}
	.st60{fill:#CC5252;}
	.st61{fill:#D5AE80;}
	.st62{fill:#D8A991;}
	.st63{fill:#89A750;}
	.st64{fill:#322C2B;}
	.st65{fill:#E891A5;}
	.st66{fill:#9AB05A;}
	.st67{fill:#DBA55E;}
	.st68{fill:#9E3E45;}
	.st69{fill:#F8AB51;}
	.st70{fill:#B3B3B3;}
	.st71{fill:#E6E6E6;}
</style>
<g>
	<g>
		<g>
			<path class="st10" d="M349.6,259.8c1-0.5,2-0.9,3-1.5c3.9-2.1,7.5-4.7,10.9-7.6c0.9-0.8,1.8-1.5,2.7-2.2c0.4-0.3,1-0.6,1.5-0.8
				c1.6-0.6,3.3,0.4,3.5,2.2c0.1,0.6,0,1.3-0.2,2c-0.6,2-1.6,3.9-2.8,5.6c-2.1,2.9-4.5,5.6-7.2,8c-1.5,1.3-3.1,2.4-4.9,3.3
				c-3.5,1.9-7,3.6-10.7,5c-3.9,1.5-7.6,3.5-11.2,5.7c-3,1.9-5.7,4.1-7.9,6.8c-3,3.7-5.9,7.4-8.8,11c-1.9,2.3-3.9,4.7-6.3,6.6
				c-1.2,0.9-2.5,1.7-3.8,2.4c-2.5,1.3-5,1.1-7.4-0.3c-3-1.8-5.6-4-7.8-6.7c-0.7-0.8-1.2-1.8-1.6-2.8c-1.1-2.5-0.6-4.5,1.7-5.9
				c1.5-0.9,3-1.7,4.6-2.4c2.6-1.3,5.3-2.6,7.7-4.3c2.9-2,5.6-4.2,8.1-6.7c3.3-3.4,6.3-7,9-10.8c2.2-3,3.7-6.2,4.9-9.7
				c1.7-4.9,2.9-10,3.5-15.2c0.6-5.7-0.1-11.3-1.5-16.8c-1.1-4-2.3-8-3.3-12c-0.4-1.4-0.6-2.9-0.8-4.3c-0.1-0.4,0-0.9,0-1.4
				c0.3-2.2,2-3.6,4.2-3.3c1.5,0.2,2.7,0.8,3.9,1.8c1.3,1.1,2.4,2.5,3.3,3.9c2.6,4.2,4.2,8.7,5.3,13.5c0.9,4,1.3,8,1.7,12
				c0,0.4,0.1,0.7,0.4,1.1c0.2-0.3,0.4-0.6,0.6-1c3.5-6.5,5.8-13.5,6.9-20.8c0.7-4.7,1-9.4,0.7-14.2c-0.3-4.5-1.2-8.9-2.3-13.3
				c-1.1-4.2-2.2-8.5-3.1-12.7c-0.3-1.3-0.4-2.6-0.4-4c0-1.2,0.5-2.3,1.7-2.8c1.2-0.5,2.4-0.3,3.4,0.5c0.6,0.5,1.2,1.1,1.7,1.8
				c1.8,2.3,3.3,4.9,4.4,7.5c0.7,1.7,1.4,3.4,2.1,5.1c0.1,0.3,0.3,0.6,0.6,0.9c0.2-0.8,0.3-1.7,0.5-2.5c1.3-8.3,1.4-16.7,0.7-25.1
				c-0.2-2.2-0.4-4.4-0.6-6.6c-0.1-1,0-2,0.1-3.1c0.3-2.9,3.3-3.3,4.8-1.9c0.6,0.5,1.1,1.2,1.6,1.8c1.2,1.7,2.1,3.6,2.9,5.5
				c2.2,5.3,3.4,10.9,4.2,16.6c1.2,9,1,18,0.2,27c-0.8,8-2.5,15.9-4.8,23.7c-2.9,9.6-6.5,18.9-11.1,27.8c-2.3,4.3-5.1,8.3-7.8,12.3
				c-0.3,0.4-0.5,0.8-0.7,1.1C349.4,259.7,349.5,259.7,349.6,259.8z"/>
			<path class="st10" d="M105.2,187.6c0.3-0.6,0.6-1.3,0.8-1.9c1.7-4.1,3.4-8.1,5.8-11.8c2.3-3.6,4.9-6.9,8.1-9.7
				c1.3-1.1,2.8-2.1,4.4-2.7c1.3-0.6,2.7-0.8,4.1-0.5c2.1,0.4,3.4,2.3,3,4.5c-0.4,1.8-1.2,3.4-2.2,4.9c-1.5,2.3-3,4.7-4.5,7
				c-1.9,3-3.8,5.9-5.3,9.1c-2.1,4.4-3.5,9.1-4.1,14c-0.4,3.6-0.7,7.1-0.6,10.7c0.1,4.5,0.7,8.9,2.3,13.1c1.4,3.9,3,7.7,4.9,11.3
				c3,5.9,6.9,10.9,11.8,15.3c1.1,1,2.1,2,3.2,3.1c0.4,0.4,0.8,0.8,1.1,1.3c1.2,1.7,1.2,3.5-0.1,5.2c-0.8,1-1.7,1.8-2.7,2.5
				c-2.9,2.1-6.2,3.4-9.7,4.2c-2.5,0.6-4.7,0-6.7-1.7c-1.8-1.5-3.2-3.4-4.3-5.5c-1.7-3.2-3.1-6.6-4.4-10c-1.2-3.2-2.5-6.3-3.8-9.4
				c-1.3-3.2-3.2-6.1-5.5-8.7c-2.7-3.2-5.7-6.1-9-8.7c-3.2-2.5-6.1-5.2-8.9-8.1c-1.7-1.7-3.1-3.6-4.2-5.6c-1.9-3.4-3.6-6.9-4.4-10.7
				c-0.3-1.1-0.4-2.3-0.5-3.4c-0.1-0.7,0-1.5,0.2-2.2c0.5-2,2.8-2.7,4.3-1.3c0.9,0.9,1.6,1.9,2.4,3c1.2,1.7,2.3,3.5,3.6,5.2
				c2,2.7,4.2,5.2,6.7,7.5c0.4,0.3,0.7,0.6,1.3,0.8c-0.1-0.3-0.2-0.6-0.2-1c-1.1-3.8-2.3-7.6-3.3-11.5c-1.2-4.6-1.8-9.4-2.3-14.2
				c-0.8-7.4-1-14.9-0.8-22.4c0.1-3.7,0.4-7.3,0.8-10.9c0.9-8.6,3-17,5.7-25.3c2.2-6.5,4.9-12.8,8.6-18.7c1.9-3,4-6,6.6-8.5
				c0.9-0.9,1.8-1.6,2.8-2.3c0.5-0.4,1.2-0.7,1.8-0.8c2-0.5,3.7,1.1,3.5,3.1c-0.2,1.7-0.8,3.3-1.5,4.8c-1.7,3.9-3.3,7.9-4.6,11.9
				c-1.9,5.7-3.3,11.6-4.1,17.5c-0.1,0.6-0.1,1.2-0.2,2.1c0.3-0.3,0.5-0.5,0.7-0.7c1.5-1.8,3-3.6,4.5-5.3c1.7-1.9,3.6-3.6,5.8-5.1
				c0.6-0.4,1.3-0.8,2-1.1c0.9-0.4,1.9-0.4,2.8,0.1c0.9,0.5,1.5,1.2,1.5,2.3c0,0.7-0.1,1.5-0.4,2.2c-0.5,1.2-1,2.4-1.7,3.5
				c-2.1,3.6-4.3,7.3-6.6,10.8c-3.6,5.7-6.3,11.8-8,18.3c-0.9,3.6-1.5,7.2-1.9,10.8c-0.3,2.7-0.4,5.4-0.3,8.1
				c0.1,3.6,0.6,7.2,1.3,10.8c0,0.2,0.1,0.4,0.2,0.6C105.1,187.6,105.2,187.6,105.2,187.6z"/>
		</g>
		<g>
			<path class="st11" d="M302.7,134c-0.1-0.3-0.3-0.6-0.4-0.9c-3.2-5.9-5.1-12.3-5.8-18.9c-0.4-3.7-0.2-7.4,0.4-11
				c0.9-5.2,2.3-10.2,3.7-15.3c0.1-0.4,0.2-0.7,0.4-1.1c1-2.9,3.9-3.2,5.8-2.2c1.1,0.6,2,1.4,2.8,2.4c2.3,2.8,3.7,5.9,4.6,9.4
				c1,3.9,0.8,7.8-0.5,11.6c-0.8,2.4-1.8,4.7-2.7,7c-1,2.4-2,4.9-2.6,7.5c-0.8,3.3-0.4,6.4,0.4,9.6c0.6,2.3,1.6,4.5,3,6.5
				c2.4,3.6,4.9,7.1,7.4,10.7c2.4,3.4,4.9,6.8,6.5,10.7c2.2,5.4,4.7,10.8,6.1,16.5c0.9,3.8,1.5,7.7,2.2,11.5
				c0.4,2.3-2.1,3.6-3.7,3.2c-0.9-0.2-1.3-0.9-1.5-1.8c-0.2-1.1-0.4-2.3-0.7-3.4c-1.3-6.1-2.9-12.1-5.3-17.9c-1.1-2.6-2.4-5-3.9-7.4
				c-5.2-8.3-11.6-15.6-19-21.9c-5.5-4.7-11.3-8.9-17.4-12.7c-2.2-1.4-4.6-2.4-7-3.5c-2.2-1.1-4.4-2.1-6.7-3.1
				c-2-0.9-3.9-1.8-5.9-2.5c-4.5-1.8-8.4-4.5-11.8-7.8c-3.5-3.5-5.8-7.8-7.2-12.5c-1.1-3.6-1.7-7.2-1.9-10.9c-0.2-3-0.3-6-0.5-9
				c0-0.4,0-0.7,0-1.1c0.1-2.2,1.4-3.5,3.5-3.8c1.5-0.3,2.9,0,4.3,0.6c3.1,1.3,5.9,3.1,8.3,5.5c4.8,4.6,8.1,10.1,10.5,16.3
				c1.4,3.6,2.7,7.2,4.2,10.7c1.8,4.3,4.2,8.3,7.4,11.7c2.4,2.6,5.1,5,8,7c4.9,3.3,9.8,6.6,14.3,10.5c0.1,0.1,0.2,0.1,0.3,0.2
				C302.6,134,302.7,134,302.7,134z"/>
			<path class="st11" d="M88.5,279.8c-0.6,1.1-1.2,2.1-1.7,3.2c-1.8,3.6-3.8,7.1-6.2,10.4c-2,2.8-4.1,5.4-7,7.4
				c-2.6,1.9-5.5,3.4-8.5,4.7c-0.7,0.3-1.4,0.6-2.1,0.9c-0.4,0.2-0.8,0.3-1.2,0.4c-1.6,0.4-3-0.2-3.6-1.8c-0.4-1.1-0.7-2.3-0.8-3.5
				c-0.4-7.4,2.5-13.3,8.6-17.5c2.2-1.5,4.5-2.5,7-3.5c2.6-1,5.1-2.1,7.5-3.5c2.9-1.7,5.1-4,6.9-6.8c0.3-0.5,0.5-1,0.7-1.5
				c2.6-6.6,3.4-13.4,2.7-20.4c-0.1-0.8-0.3-1.6-0.5-2.4c-0.2-1-0.1-1.5,0.5-1.9c0.7-0.4,1.7-0.4,2.2,0.2c0.5,0.5,0.8,1.1,1.1,1.8
				c1.2,2.8,1.6,5.7,1.8,8.7c0.4,5.6-0.3,11.2-1,16.7c-0.7,4.7-1.3,9.5-1.9,14.2c-0.5,4.3-1,8.5-1.2,12.8c-0.2,3.7-0.4,7.4,0.2,11.1
				c0.6,3.4,1.8,6.5,3.9,9.3c2,2.6,4.5,4.8,7,6.8c1.9,1.5,3.8,3.1,5.5,4.8c4.7,4.7,7.4,10.3,8.1,16.9c0.4,3.5,0.1,7-1.2,10.4
				c-0.6,1.7-1.4,3.4-2.1,5c-0.8,1.7-2.1,3-3.8,3.8c-1.4,0.7-2.8,0.6-4.1-0.3c-8.7-5.9-15-13.7-18.4-23.7c-1.5-4.6-2.4-9.3-2.7-14.1
				c-0.5-6.6,0-13.2,1.2-19.8c0.3-1.4,0.3-2.9,0.5-4.4c0.5-4.8,1.1-9.6,1.6-14.5c0.3-2.9,0.6-5.9,0.9-8.8c0-0.5,0.1-0.9,0.1-1.4
				C88.7,279.9,88.6,279.8,88.5,279.8z"/>
			<path class="st11" d="M278.1,345.9c0.4,0.2,0.8,0.3,1.2,0.5c3.5,1.2,7,2.3,10.5,3.5c3.7,1.3,7.2,3.3,10.3,5.7
				c1.4,1.1,2.8,2.2,4.1,3.3c0.4,0.3,0.7,0.6,1,0.9c1.4,1.5,1.4,3.5-0.1,4.9c-0.7,0.6-1.5,1.1-2.4,1.5c-1.6,0.7-3.3,0.9-5,1
				c-2.1,0-4.1-0.1-6.2-0.6c-2.5-0.6-4.7-1.8-6.6-3.5c-2.2-1.9-4-4.1-5.6-6.4c-1.4-2.1-2.9-4.1-4.3-6.1c-2.1-2.9-4.9-4.9-8.3-6.1
				c-1.8-0.7-3.8-1.1-5.7-1.5c-4.3-0.8-8.5-1.4-12.9-1.1c-6.6,0.4-13,1.5-19,4.5c-1.5,0.8-3,1.7-4.5,2.6c-0.5,0.3-1,0.6-1.5,0.8
				c-0.6,0.3-1.2,0.1-1.7-0.3c-1-0.9-1.2-2.3-0.3-3.3c0.3-0.3,0.7-0.6,1-0.9c4.9-3.7,10.5-6,16.5-7.2c3.4-0.7,6.9-1.1,10.4-1.3
				c3.4-0.2,6.8,0,10.1,0.4c5.2,0.6,10.5,1.4,15.7,1.9c6.4,0.7,12.9,0.7,19.2-0.6c6.5-1.3,12.2-4.3,16.3-9.7c1.7-2.3,3.4-4.6,5-6.9
				c2.1-3,4.3-6,6.9-8.7c3.1-3.1,6.6-5.5,10.7-7.1c1.4-0.5,2.7-1.1,4-1.5c0.8-0.3,1.6-0.4,2.5-0.5c1.2-0.2,2.1,0.4,2.8,1.3
				c0.8,1,1.2,2.1,1.5,3.3c1.2,5.3,0.9,10.5-1.2,15.6c-0.3,0.7-0.6,1.4-0.9,2.1c-2.3,5.8-6.5,9.8-11.8,12.8c-3.7,2.1-7.8,3.3-12,4.1
				c-3.1,0.6-6.1,0.8-9.2,1c-2.1,0.1-4.1,0.3-6.2,0.5c-6.4,0.6-12.8,1.1-19.2,1c-1.5,0-3,0-4.5,0c-0.3,0-0.5,0-0.8,0
				C278.1,345.8,278.1,345.9,278.1,345.9z"/>
		</g>
	</g>
	<g>
		<path class="st8" d="M259.5,179.6c1.8-0.1,3.6-0.4,5.2-0.9c4.3-1.2,8.1-3.2,11.1-6.5c0.4-0.4,0.9-0.8,1.4-1.1
			c0.5-0.2,1.1-0.3,1.6-0.3c1,0.1,1.4,0.9,1,1.8c-0.1,0.3-0.4,0.6-0.6,0.9c-1.1,1.4-2.4,2.7-3.8,3.7c-4.4,3.2-9.2,5.3-14.6,6
			c-0.5,0.1-1,0.2-1.6,0.3c-0.1,0.3-0.2,0.7-0.2,1c-0.4,6.4-0.5,12.7-0.2,19.1c0.3,5.2,0.8,10.4,2.1,15.5c0.7,2.8,1.5,5.6,2.9,8.1
			c0.3,0.6,0.7,1.2,1.1,1.8c0.7-0.5,1-1,1.2-1.6c0.5-1.6,1.1-3.2,1.4-4.8c0.6-2.6,1-5.2,1.5-7.8c0.1-0.5,0.1-1,0-1.4
			c-1.2-3.3-1.8-6.7-2.1-10.2c-0.3-3.2-0.2-6.5,0.5-9.7c0.5-2.5,1.5-4.9,3.3-6.8c1.2-1.3,2.6-2.3,4.4-2.7c1.2-0.3,2.3-0.2,3.4,0.1
			c4.5,1.5,7.5,6.8,6.8,10.7c-0.4,2.5-1.6,4.7-3.3,6.5c-1.9,2.1-4.1,3.6-6.9,4.4c-0.1,0-0.3,0.1-0.5,0.2c0.1,0.5,0.1,1,0.3,1.5
			c0.6,3.1,1.7,6.1,3.7,8.7c1.2,1.6,2.6,2.8,4.3,3.8c0.8,0.5,1.6,0.4,2.4,0c1.1-0.6,2-1.6,2.7-2.6c1.1-1.6,1.9-3.4,2.5-5.2
			c1.2-3.5,2.1-7,2.5-10.7c0.6-5,1.2-10,1.6-15c0.3-4.1,0.2-8.2,0.2-12.2c0-1.4-0.1-2.9-0.1-4.4c-0.5-0.2-0.9-0.3-1.3-0.5
			c-2.9-1-5.7-2.2-8.3-3.9c-3.9-2.6-6.5-6.2-7.4-10.9c-0.5-2.3-0.5-4.7,0.3-7c0.3-0.8,0.6-1.5,1-2.2c1.3-2.1,3.3-3,5.8-2.5
			c1.4,0.3,2.6,0.9,3.8,1.8c1.6,1.3,2.8,2.8,3.9,4.6c2,3.3,3.4,7,4.4,10.7c0.6,2.3,1.1,4.6,1.5,6.9c0.1,0.5,0.3,0.8,0.8,0.9
			c3,0.9,6.1,1.8,9.1,2.7c2.4,0.8,4.6,1.9,6.7,3.3c3,2,4.4,4.8,4.4,8.4c0,3.4-0.7,6.6-1.6,9.9c-1.4,4.6-2.8,9.2-4.2,13.8
			c-1.4,4.6-2.4,9.3-3,14.1c-0.4,3.4-0.5,6.7,0.6,10c0.4,1.1,0.8,2.1,1.6,2.9c1.1,1.2,2.4,1.3,3.6,0.2c0.9-0.9,1.6-2,2.3-3
			c0.4-0.5,0.6-1.2,1-1.7c0.5-0.8,1.1-1.4,2-1.5c1.2-0.2,2,0.6,1.5,1.7c-1.1,2.7-2.5,5.3-4.8,7.1c-5.5,4.3-12.4,1.4-14.5-4.2
			c-0.7-2-0.9-4-1-6.1c-0.2-3.4,0.3-6.8,0.9-10.2c1.2-6.8,3.3-13.3,5.3-19.9c0.9-3.1,1.8-6.2,2.5-9.4c0.4-1.6,0.5-3.3,0.5-4.9
			c0.1-2.8-1.1-4.9-3.6-6.3c-2-1.1-4.1-1.9-6.2-2.6c-1.1-0.4-2.1-0.7-3.1-1c0,1.2,0,2.3,0,3.4c0.3,5.7,0.2,11.5-0.4,17.2
			c-0.4,3.4-0.7,6.7-1.1,10.1c-0.5,3.9-1.3,7.8-2.5,11.6c-0.6,2-1.5,4-2.6,5.8c-1.1,1.9-2.6,3.5-4.5,4.6c-3.1,1.8-6.3,2-9.6,0.6
			c-2.2-1-4-2.5-5.6-4.3c-0.2-0.3-0.5-0.5-0.8-0.9c-0.2,1.5-0.4,2.8-0.7,4c-0.3,1.5-0.6,3.1-1.1,4.6c-0.2,0.8-0.6,1.6-1.1,2.3
			c-1.8,2.9-4.9,3.7-8,2.1c-1.8-1-3.2-2.3-4.3-4c-0.7-1-1.3-2.1-2-3.3c-0.2,0.9-0.3,1.7-0.4,2.5c-0.9,5.5-1.8,11-2.8,16.4
			c-0.4,2.2-1,4.3-1.7,6.4c-0.3,1-0.9,2-1.5,2.9c-1.8,2.4-4.8,2.8-7.2,1.3c-1.2-0.8-2.2-1.9-3-3.1c-1.7-2.6-2.7-5.5-3.4-8.6
			c-0.8-3.6-1.3-7.3-1.6-11c-0.4-5.2-0.6-10.4-0.5-15.6c0-0.2,0-0.5-0.1-0.9c-0.3,0.5-0.5,0.8-0.7,1.1c-1.5,2.6-2.8,5.3-4.4,7.8
			c-2,3.3-4.2,6.5-6.4,9.7c-1.5,2.1-3.3,3.9-5.4,5.5c-4.5,3.2-9.2,3.6-14.1,1.2c-4.4-2.1-7.4-5.5-8.9-10.2c-0.2-0.5-0.3-1-0.5-1.5
			c-2.8,0.2-5.5,0.4-8.4,0.6c-0.1,1.2-0.1,2.3-0.2,3.4c-0.4,4.3-1.5,8.4-3.6,12.2c-1.1,2.1-2.6,3.9-4.5,5.4
			c-1.8,1.4-3.8,2.4-6.1,2.7c-2.1,0.3-4-0.2-5.6-1.6c-2.3-1.9-3.4-4.4-3.6-7.4c-0.3-5,1.5-9.1,5.3-12.3c2.7-2.3,5.9-3.5,9.3-4.2
			c0.5-0.1,1-0.2,1.6-0.3c-0.2-1.3-0.4-2.5-0.6-3.8c-0.5-2.5-1.2-4.8-2.3-7.1c-0.7-1.3-1.5-2.6-2.5-3.6c-1.8-1.9-3.9-2.3-6.3-1.1
			c-1.6,0.8-3,2-4.1,3.4c-2.4,2.8-3.8,6.1-4.5,9.8c-1.3,6.3-0.9,12.5,1,18.5c0.7,2.1-0.9,3.8-3.2,3.6c-1.6-0.1-2.9-0.7-3.7-2.1
			c-0.8-1.2-1.6-2.5-2.3-3.8c-4-7.3-6.5-15.1-8.1-23.2c-0.4-2-0.7-3.9-1-5.9c0-0.2-0.1-0.3-0.1-0.6c-0.2,0.1-0.4,0.2-0.5,0.3
			c-2.3,1.7-4.5,3.6-6.4,5.7c-2.1,2.3-3.7,4.8-4.8,7.6c-0.6,1.5-1,3.1-1.1,4.8c0,0.4-0.1,0.8-0.2,1.3c-0.1,0.6-0.6,0.9-1.1,0.9
			c-0.5,0.1-1-0.2-1.2-0.8c-0.2-0.5-0.3-0.9-0.4-1.4c-0.2-1.7,0-3.3,0.5-4.9c1.2-4,3.4-7.3,6.3-10.2c2.3-2.3,4.9-4.3,7.5-6.2
			c0.3-0.2,0.7-0.5,0.9-0.7c-0.1-2.4-0.3-4.6-0.3-6.8c-0.1-5,0.2-10.1,1.3-15c1-4.4,2.7-8.4,5.7-11.7c2.2-2.4,4.8-3.9,8.1-4.1
			c2.6-0.2,4.8,0.6,6.6,2.4c3,3,4.2,6.5,3.8,10.7c-0.5,5-2.8,9.1-6.1,12.7c-3.2,3.6-6.8,6.7-10.7,9.5c-0.3,0.2-0.7,0.5-1.1,0.8
			c1,9.5,3,18.7,6.9,27.5c0-0.4,0-0.7,0-1.1c-0.2-4.1,0.1-8.2,1.3-12.1c1.2-3.9,3.2-7.3,6.3-10.1c2.6-2.2,5.5-3.6,8.9-3.5
			c4,0,7.4,1.7,9.9,4.8c2,2.6,3.3,5.6,4,8.8c0.4,1.7,0.6,3.4,0.9,5.1c0,0.2,0.1,0.4,0.1,0.7c2.6-0.2,5.1-0.4,7.7-0.5
			c0-0.6-0.1-1.1-0.1-1.6c-0.5-4.5,0.3-8.8,2.2-12.9c1.4-3,3.5-5.2,6.6-6.5c2.5-1,5.1-1.1,7.6-0.2c5.5,1.9,8.4,7.8,5.3,14.1
			c-1,2-2.6,3.6-4.4,4.9c-2.4,1.7-5.1,2.8-7.9,3.7c-0.3,0.1-0.7,0.2-1.1,0.3c0.1,0.2,0.1,0.5,0.2,0.7c1.2,3.3,3,6.1,5.8,8.2
			c0.6,0.5,1.3,0.9,2.1,1.2c1.2,0.5,2.4,0.5,3.6,0c1.3-0.6,2.5-1.3,3.4-2.2c1.2-1.2,2.3-2.4,3.3-3.7c3.2-4,5.7-8.3,8.3-12.7
			c2-3.4,4-6.8,6-10.2c0.3-0.4,0.4-1,0.4-1.5c0.2-2.7,0.2-5.4,0.4-8.1c0.2-3.7,0.4-7.4,0.6-11.1c0-0.3,0-0.7,0-1.2
			c-0.4,0.1-0.8,0.2-1.2,0.4c-1.4,0.6-2.7,1.2-4.1,1.8c-0.1,0-0.1,0.1-0.2,0.1c-0.9,0.4-1.5,0.4-1.8,0c-0.3-0.4-0.2-1.1,0.5-1.8
			c0.4-0.4,0.8-0.8,1.2-1.1c1.5-1.1,3.1-1.9,4.8-2.6c0.3-0.1,0.6-0.2,0.9-0.4c0.1-0.5,0.1-1,0.2-1.5c0.1-4,0.4-7.9,0.9-11.9
			c0.1-1,0.3-2.1,0.6-3.1c0.4-1.5,1.2-2.2,2.6-2.3c1.5-0.2,2.9,0.5,3.4,1.8c0.3,0.7,0.5,1.6,0.5,2.3c0,2.3-0.2,4.6-0.3,6.8
			c-0.1,1.9-0.2,3.8-0.3,5.7c3.4-0.4,6.6-0.8,10-1.2c0-0.2,0.1-0.5,0.1-0.7c0.7-7.1,1.4-14.3,2.2-21.4c0.3-2.9,0.9-5.8,1.4-8.7
			c0.2-1.1,0.7-2.1,1.2-3.1c0.5-1,1.3-1.5,2.4-1.4c1.1,0,2,0.6,2.6,1.6c0.5,1,0.7,2,0.7,3.1c-0.1,1.7-0.2,3.4-0.3,5.2
			c-0.4,4-1,8-1.4,11.9c-0.4,4.1-0.8,8.1-1.2,12.2C259.4,179,259.5,179.3,259.5,179.6z M241.7,185.3c0,0.3-0.1,0.6-0.1,0.8
			c-0.1,2.7-0.3,5.4-0.4,8.1c-0.2,4.5-0.6,9-0.7,13.5c-0.2,6.8-0.4,13.6,0.1,20.5c0.3,5.2,0.9,10.3,2.2,15.3c0.6,2.2,1.3,4.3,2,6.4
			c0.1,0.4,0.4,0.8,0.7,1.3c0.4-0.8,0.7-1.3,0.9-1.9c0.6-2,1.4-3.9,1.8-5.9c1.7-8.4,3.2-16.8,4.8-25.2c0.1-0.3,0-0.6,0-0.9
			c-0.8-4.3-1.2-8.6-1.5-13c-0.3-5.8-0.3-11.7,0.1-17.5c0-0.8,0-1.6,0-2.5C248.2,184.4,245,184.7,241.7,185.3z M145.4,202.6
			c0.4-0.3,0.7-0.4,0.9-0.6c1.7-1.4,3.3-2.7,4.9-4.1c2.6-2.3,4.7-5.1,6.4-8.2c1.5-2.7,2.3-5.7,2.2-8.8c-0.1-2.3-0.9-4.3-2.5-6
			c-1.6-1.7-2.7-1.8-4.6-0.4c-0.5,0.4-1,0.8-1.4,1.3c-0.7,0.9-1.4,1.9-1.9,2.9c-1,1.9-1.8,3.9-2.3,6c-1,3.5-1.5,7.2-1.6,10.8
			C145.3,197.8,145.4,200.1,145.4,202.6z M294.4,166.4c0-0.3,0-0.6,0-0.8c-0.5-3.7-1.3-7.3-2.6-10.7c-0.9-2.6-2.1-5.1-3.9-7.2
			c-0.6-0.8-1.4-1.5-2.3-2c-1.3-0.8-2.2-0.5-3,0.8c-0.8,1.2-1.1,2.6-1.2,4c-0.2,5.9,2.3,10.4,7.4,13.4c1.4,0.8,2.8,1.4,4.3,2
			C293.5,166.1,293.9,166.2,294.4,166.4z M176.6,230.1c-3,0.5-5.9,1.1-8.3,3.1c-2.8,2.4-4,5.3-3.8,9c0.1,2.3,1.2,4,3.1,5.2
			c0.8,0.5,1.5,0.5,2.3,0.1c1-0.5,1.9-1.1,2.5-2c0.6-0.9,1.3-1.9,1.7-2.9c1.5-3.1,2.2-6.5,2.3-10
			C176.6,231.9,176.6,231.1,176.6,230.1z M199.1,224.7c2.9-0.8,5.5-1.8,7.8-3.6c2.5-1.9,3.5-4.5,3.3-7.6c-0.1-1.9-0.9-3.4-2.4-4.5
			c-2.3-1.7-4.2-1.3-5.7,0.8c-0.5,0.7-0.9,1.4-1.2,2.1c-0.5,1-0.9,2.1-1.2,3.1C198.8,218.2,198.5,221.4,199.1,224.7z M274.4,203.6
			c0.3-0.1,0.5-0.1,0.7-0.2c2.2-0.9,4.1-2.3,5.4-4.4c1.2-2,1.8-4.1,1.3-6.4c-0.5-2-1.6-3.6-3.3-4.7c-1.1-0.7-1.4-0.6-2,0.5
			c-0.4,0.7-0.7,1.4-1,2.1c-0.7,2.2-1.1,4.4-1.2,6.7C274.1,199.4,274.1,201.5,274.4,203.6z"/>
		<g>
			<path class="st8" d="M291.2,258.2c-1.3,0.1-2.4,0.2-3.7,0.2c0,0.9,0,1.7,0,2.5c0,0.8,0,1.7-0.1,2.5c-0.3,2.2-3.5,3.5-5.5,2.5
				c-0.6-0.3-1-0.8-1.1-1.5c-0.1-0.6-0.2-1.1-0.2-1.7c0-4.6,0.1-9.2,0.2-13.7c0-0.8,0.1-1.6,0.2-2.4c0.3-1.8,1.6-2.9,3.4-3.1
				c1.5-0.1,2.6,0.6,2.8,2.1c0.2,1.3,0.3,2.7,0.3,4c0.1,1.7,0,3.4,0,5.1c0,0.3,0,0.5,0.1,0.9c1.2-0.2,2.3-0.3,3.5-0.5
				c0-0.4,0-0.7,0-1.1c0.1-2.1,0.1-4.2,0.2-6.3c0.2-2.1,1.4-3.3,3.4-3.6c1.6-0.2,2.7,0.5,3,2.1c0.2,0.8,0.3,1.7,0.3,2.5
				c0.2,4.8,0.3,9.6,0.5,14.4c0.1,2.7-2.3,4.6-4.9,3.9c-1-0.3-1.8-0.9-1.9-2c-0.2-1.7-0.3-3.5-0.5-5.3
				C291.2,259.1,291.2,258.7,291.2,258.2z"/>
			<path class="st8" d="M307.4,253.9c1.1,0,2.2,0,3.2,0c0.6,0,1.3,0.1,1.9,0.3c0.5,0.1,1,0.4,1.1,1c0.1,0.6-0.3,1.1-0.8,1.4
				c-0.8,0.5-1.6,0.6-2.5,0.6c-0.8,0-1.6-0.1-2.5-0.1c0,1.6,0.3,3.1,0.5,4.8c0.7,0,1.4,0.1,2.1,0.1c0.7,0,1.5-0.1,2.2-0.1
				c1,0,1.8,0.5,2,1.1c0.2,0.7-0.3,1.6-1.3,2c-1,0.4-2.1,0.6-3.2,0.9c-1.7,0.3-3.4,0.6-5.1,0.3c-1.8-0.3-3.1-1.2-3.6-3.1
				c-0.4-1.4-0.7-2.8-0.8-4.2c-0.2-3-0.4-6-0.1-9c0.1-0.9,0.3-1.8,0.5-2.7c0.4-1.6,1.5-2.7,3-3.1c2.4-0.8,4.9-1,7.4-0.5
				c0.9,0.2,1.4,0.5,1.4,1.1c0,0.8-0.6,1.1-1.2,1.3c-0.7,0.3-1.5,0.4-2.2,0.6c-0.6,0.1-1.2,0.3-1.9,0.4
				C307.3,249.2,307.3,251.5,307.4,253.9z"/>
			<path class="st8" d="M267.4,247.7c-0.6,0-1.1,0-1.7,0c-0.4,0-0.9-0.1-1.3-0.2c-0.7-0.3-0.9-1-0.3-1.5c0.4-0.4,1-0.8,1.6-0.9
				c1.1-0.3,2.2-0.4,3.3-0.5c2-0.1,4.1-0.1,6.1-0.1c0.8,0,1.6,0.1,2.4,0.4c1.2,0.4,1.3,1.5,0.3,2.3c-0.7,0.5-1.5,0.7-2.4,0.8
				c-0.5,0-1,0-1.6,0c0,0.3-0.1,0.6-0.1,0.9c0.2,4,0.4,7.9,0.6,11.9c0,0.5,0,1,0.1,1.5c0.1,1.2-0.4,2.1-1.3,2.7
				c-1.2,0.9-2.4,1.2-3.9,0.8c-1-0.3-1.6-0.9-1.6-2c-0.1-1.6-0.2-3.3-0.3-4.9c-0.1-2.8-0.1-5.7-0.1-8.5
				C267.2,249.4,267.3,248.6,267.4,247.7z"/>
		</g>
		<g>
			<path class="st8" d="M203.4,262.8c-1.8,0.1-3.5,0.1-5.2,0.2c-0.1,0.4-0.2,0.8-0.3,1.2c-0.2,0.9-0.8,1.4-1.7,1.6
				c-1.3,0.3-2.2-0.3-2.2-1.6c0-1.3,0.2-2.6,0.4-3.9c0.6-3.1,1.2-6.1,1.9-9.2c0.1-0.4,0.3-0.9,0.4-1.3c1.3-3.4,5-4.5,7.9-2.3
				c1.2,0.9,2,2.2,2.6,3.5c1.3,2.9,2.1,6,3,9c0.2,0.7,0.4,1.4,0.6,2.1c0.4,1.5-0.2,2.8-1.4,3.7c-1.3,0.9-2.8,1.1-4.3,0.3
				c-0.6-0.3-1-0.9-1.2-1.5C203.8,264,203.6,263.4,203.4,262.8z M202.5,259.6c-0.6-2.7-1.6-5.2-2.2-5.8c-0.5,2-1,4-1.6,6.1
				C200.1,259.8,201.3,259.7,202.5,259.6z"/>
			<path class="st8" d="M215.1,249.9c-0.6,0-1.3,0-2,0c-0.5,0-1,0-1.5-0.1c-0.9-0.3-1.2-1.1-0.5-1.8c0.3-0.3,0.8-0.6,1.2-0.8
				c0.8-0.3,1.7-0.5,2.5-0.6c2.6-0.3,5.2-0.5,7.8-0.7c0.5,0,1.1,0,1.7,0.2c1.3,0.4,1.5,1.6,0.5,2.4c-0.6,0.4-1.3,0.7-2,1
				c-0.3,0.1-0.6,0.1-1,0.2c0,0.3,0,0.5,0,0.7c0.2,4.3,0.4,8.6,0.6,13c0.1,2.8-3.2,4.2-5.2,3.3c-0.9-0.4-1.3-1.1-1.4-2
				c-0.1-1.2-0.3-2.3-0.3-3.5c-0.2-3.1-0.3-6.3-0.5-9.4C215,251.2,215.1,250.6,215.1,249.9z"/>
		</g>
		<g>
			<path class="st8" d="M184.2,181.9c-1.5,0-2.9-0.5-4.2-1.3c-0.1-0.1-0.2-0.2-0.3-0.3c-0.4-0.5-1-0.9-0.7-1.6
				c0.3-0.7,0.9-1.1,1.7-1.1c0.6,0,1.2,0.2,1.8,0.4c0.3,0.1,0.6,0.3,0.9,0.4c0.5,0.2,1,0.2,1.4-0.2c0.4-0.4,0.5-0.9,0.3-1.4
				c-0.1-0.4-0.3-0.7-0.5-1c-0.6-0.8-1.3-1.6-2-2.3c-1.2-1.1-2.3-2.3-3.2-3.6c-0.9-1.4-1.4-2.9-1.3-4.5c0.2-3.5,3.3-6.2,7-6
				c2,0.1,3.5,0.9,4.6,2.6c0.5,0.8,0.7,1.7,0.6,2.7c-0.1,0.7-0.5,1.3-1.2,1.5c-0.7,0.2-1.2-0.1-1.6-0.8c-0.5-0.8-1-1.5-1.8-2.1
				c-0.3-0.2-0.7-0.6-1.1-0.3c-0.3,0.2-0.5,0.7-0.4,1.1c0.1,0.7,0.2,1.4,0.5,2c0.5,1.2,1.5,2,2.4,2.9c0.7,0.6,1.4,1.2,2,1.8
				c1,0.9,1.7,1.9,2.3,3.2c0.9,2.2,0.4,4.4-1.4,5.9C188.3,181.2,186.3,181.8,184.2,181.9z"/>
			<path class="st8" d="M175.7,173c0,1.3,0,3.2,0,5c0,1.2-0.5,2-1.5,2.6c-0.9,0.5-1.8,0.7-2.8,0.4c-1.3-0.3-2-1-2-2.3
				c-0.2-4.8-0.4-9.6-0.6-14.3c0-0.2,0-0.4,0-0.6c0.1-1.8,1-2.9,2.7-3.2c1.8-0.3,3.2,0.6,3.5,2.4c0.2,1.2,0.3,2.4,0.4,3.7
				C175.6,168.6,175.6,170.5,175.7,173z"/>
		</g>
		<g>
			<path class="st8" d="M156.9,297.7c0.7-1.1,1.8-1.8,3.1-1.9c1.8-0.1,2.9,0.7,3.1,2.5c0.1,1.1,0.1,2.3-0.1,3.5
				c-0.3,2.8-0.6,5.6-0.9,8.4c-0.4,4.3-0.3,8.6,0,13c0.2,3.2,0.6,6.4,1.4,9.6c0.5,2.2,1.4,4.3,2.5,6.3c0.3,0.5,0.7,1,1.2,1.7
				c0.6-1.1,1.2-1.9,1.5-2.8c0.9-2.4,1.9-4.9,2.6-7.4c1.4-5.1,2.6-10.3,3.9-15.4c0.1-0.4,0.1-0.9,0-1.3c-1.5-6.5-2.6-13-3.1-19.6
				c-0.3-5.2-0.2-10.3,0.7-15.5c0.6-3.3,1.9-6.3,4.2-8.8c4.3-4.6,11-4.2,15,0.1c4.1,4.5,5.2,9.7,3.5,15.5c-0.7,2.4-1.8,4.5-3,6.6
				c-2.9,5-6.4,9.4-10.7,13.3c-0.6,0.5-0.7,1-0.5,1.7c0.8,4.6,2.1,9,3.8,13.4c0,0.1,0.1,0.2,0.3,0.5c0.3-1.1,0.5-2,0.7-2.9
				c0.6-2.3,1.3-4.6,2.3-6.8c0.9-1.8,2-3.4,3.3-4.9c3.7-4,9.4-3.7,12.6-2.1c3.1,1.6,5.2,4,6.3,7.3c0.2,0.6,0.4,1.1,0.5,1.8
				c0.3-0.1,0.5-0.2,0.8-0.4c2.1-1.4,4.2-2.8,6.4-4.2c0.5-0.3,0.7-0.7,0.7-1.3c0.1-3.5,0.2-7,0.7-10.5c0.3-2.1,0.7-4.2,1.1-6.3
				c0.4-1.8,1.4-3.1,3.4-3.3c0.5-0.1,1,0,1.5,0.1c1.3,0.3,2.1,1.1,2.1,2.4c0,1.4-0.1,2.7-0.3,4.1c-0.7,5.1-1.2,10.2-1.1,15.4
				c0,3.7,0.5,7.4,1.4,11c0.3,1,0.7,1.9,1.1,2.8c0.2,0.4,0.5,0.7,0.9,1.2c0.5-0.8,1-1.4,1.3-2c0.8-1.6,1.5-3.3,2.1-4.9
				c2.4-6.5,4.8-12.9,7.1-19.4c0.2-0.6,0.3-1.4,0.3-2.1c0-2.6,0-5.1,0-7.7c0-0.9,0.2-1.8,0.4-2.7c0.5-1.7,1.9-2.6,3.6-2.5
				c1.3,0.1,2.3,0.7,2.7,2c0.2,0.9,0.4,1.9,0.4,2.8c0.2,3.5,0.3,7.1,0.5,10.7c0.1,1.7,0.3,3.4,0.5,5c0,0.3,0.1,0.6,0.3,0.9
				c0.3-1.7,0.6-3.4,0.9-5.1c1.2-6.5,3.5-12.6,7.2-18.1c1.3-2,2.9-3.9,4.8-5.5c1.6-1.3,3.4-2.3,5.6-2.6c3.2-0.5,5.8,0.6,7.9,3
				c1.7,2,2.4,4.4,2.7,6.9c0.4,3.1,0.4,6.3,0.3,9.5c-0.1,6.2-0.3,12.5-0.3,18.7c0,3.7,0.4,7.3,1.2,10.9c0.4,1.7,1,3.3,1.8,4.8
				c0.4,0.7,0.9,1.4,1.4,2c0.8,0.9,1.1,0.9,1.9,0c0.8-0.9,1.5-1.8,2-2.8c0.7-1.4,1.3-2.9,1.9-4.4c0.6-1.8,1.1-3.6,1.7-5.3
				c0.1-0.4,0.2-0.8,0.4-1.2c0.3-0.7,0.8-1.2,1.6-1.5c0.7-0.3,1.4-0.3,2,0.2c0.6,0.5,0.6,1.1,0.4,1.8c-0.8,3.6-1.7,7.3-3.3,10.7
				c-0.8,1.6-1.7,3-2.8,4.4c-0.8,0.9-1.6,1.7-2.7,2.2c-2.9,1.6-5.7,1.4-8.4-0.4c-2.2-1.6-3.7-3.7-4.6-6.3c-0.8-2.3-1.2-4.6-1.5-7
				c-0.8-5.9-0.7-11.7-0.5-17.6c0.1-4.7,0.2-9.4,0.2-14.1c0-2.2-0.1-4.4-0.8-6.5c-0.4-1.1-0.9-2.1-1.5-3.1c-0.5-0.9-1.1-1.1-2.1-0.7
				c-0.9,0.4-1.8,0.9-2.6,1.5c-1.6,1.3-2.9,2.9-4,4.6c-3,4.7-5,9.8-6.1,15.3c-0.8,3.7-1.2,7.5-1.5,11.3c-0.2,3.1-0.3,6.1-0.4,9.2
				c-0.1,1.3-0.9,2.3-2.5,2.8c-1.7,0.5-3,0-3.8-1.6c-1.5-3.3-2.8-6.6-3.5-10.1c-0.3-1.6-0.6-3.3-1-5.2c-0.2,0.6-0.4,1-0.5,1.4
				c-1.5,4.4-2.9,8.8-4.4,13.2c-0.6,1.6-1.2,3.1-2,4.6c-0.5,0.9-1.1,1.8-1.8,2.6c-2.2,2.3-5.3,2.4-7.8,0.5c-2.2-1.7-3.5-3.9-4.4-6.5
				c-0.8-2.5-1-5-1.3-7.6c0-0.4-0.1-0.8-0.1-1.3c-2.5,1.6-4.9,3.2-7.2,4.8c0.1,1.8,0.2,3.6,0.3,5.3c0,3.8-0.3,7.5-1.7,11.1
				c-0.6,1.5-1.3,3-2.1,4.3c-1.5,2.3-3.5,3.8-6.3,4.2c-3.2,0.4-5.8-1.5-6.3-4.7c-0.3-2,0-4,0.6-5.9c1.4-4.7,4-8.7,7.6-12
				c0.6-0.6,0.8-1.1,0.6-1.9c-0.4-2-0.7-4-1.6-5.8c-0.4-0.9-0.9-1.8-1.5-2.6c-1.7-2.2-4.4-2.3-6.4-0.4c-1.3,1.3-2.3,2.8-3.1,4.5
				c-1.4,3-2.2,6.2-2.7,9.5c-0.3,1.9-0.7,3.7-0.8,5.6c-0.3,2.9-3.8,3.5-5.4,2.1c-0.5-0.5-1-1-1.4-1.6c-1.6-2.3-3-4.6-4-7.2
				c0-0.1-0.1-0.2-0.2-0.5c-0.3,0.4-0.3,0.8-0.4,1.2c-1,4-1.9,8.1-3,12.1c-0.5,1.8-1.2,3.6-1.9,5.4c-0.5,1.1-1.1,2.1-1.9,3
				c-1.9,2.2-4.7,2.5-7,0.7c-1.5-1.2-2.6-2.7-3.6-4.2c-1.8-2.9-2.8-6.1-3.6-9.4c-1.3-5.5-1.6-11-1.3-16.6c0-0.6,0-1.1,0-1.9
				c-0.3,0.4-0.5,0.6-0.6,0.8c-1.1,1.6-2.1,3.2-3.3,4.8c-0.7,1-1.6,1.9-2.5,2.7c-2.3,1.8-4.8,1.9-7.4,0.5c-1.6-0.9-2.8-2.2-3.8-3.6
				c-1.1-1.6-1.8-3.4-2.4-5.3c-0.1-0.2-0.1-0.5-0.3-0.8c-0.3,0.3-0.5,0.5-0.6,0.7c-1.4,1.9-2.8,3.8-4.2,5.7
				c-1.6,2.1-3.7,3.7-6.1,4.9c-4.5,2.3-9,1.7-12.6-1.9c-2.9-2.8-4.6-6.2-5.5-10c-1.5-6.4-1.1-12.8,1-19c1-2.9,2.6-5.4,5.1-7.3
				c3.4-2.6,7.9-2.9,11.3-0.9c1.2,0.7,2.2,1.7,3.1,2.8c3,4,4.2,8.5,3.9,13.4c0,0.5-0.1,0.9-0.3,1.3c-0.2,0.4-0.5,0.8-0.8,1
				c-0.9,0.6-1.8,0.1-1.9-1c-0.1-1.4-0.2-2.7-0.4-4.1c-0.5-3-1.7-5.7-3.7-8c-0.7-0.8-1.6-1.5-2.5-2.1c-1.1-0.7-2.2-0.6-3.2,0.3
				c-0.9,0.7-1.6,1.7-2.2,2.7c-1.1,2-1.8,4.2-2.2,6.5c-1,5.6-0.9,11.1,0.8,16.6c0.4,1.4,1.1,2.8,1.8,4.2c0.2,0.5,0.6,1,0.9,1.4
				c2,2.4,3.3,2.2,5.4,1.3c1.7-0.7,3.2-1.8,4.4-3.2c1-1.1,1.9-2.2,2.8-3.3c1.6-1.9,3.1-3.9,4.7-5.9c0.3-0.3,0.4-0.7,0.4-1.1
				c0-2.8,0.6-5.5,1.9-8c2.2-4.2,5.5-6.6,10.4-6.6c1.8,0,3.5,0.6,5.1,1.6c2.2,1.5,4.2,3.2,5.6,5.5
				C156.7,297.6,156.8,297.6,156.9,297.7z M180.5,302.6c0.1,0,0.2,0.1,0.3,0.1c0.2-0.3,0.4-0.6,0.7-0.8c3.2-3.4,5.8-7.3,8.1-11.4
				c0.4-0.8,0.8-1.6,1.1-2.4c1.2-2.9,1.9-5.8,1.6-8.9c-0.3-3.2-1.9-5.9-4.4-7.9c-1.8-1.5-3.5-1.2-4.9,0.7c-0.2,0.3-0.4,0.6-0.6,0.9
				c-0.6,1.4-1.3,2.8-1.8,4.3c-0.9,2.8-1.1,5.7-1.2,8.5c-0.2,4.5,0,9.1,0.6,13.6C180.2,300.3,180.4,301.5,180.5,302.6z M155.7,302.2
				c-0.1-0.1-0.2-0.5-0.4-0.8c-0.7-0.9-1.4-1.8-2.2-2.6c-1.5-1.6-3.2-3.1-5.3-4c-1.9-0.9-3.1-0.7-4.5,0.8c-0.3,0.3-0.5,0.6-0.7,0.9
				c-1.2,2-2.2,4.2-2.3,6.6c-0.1,1.7-0.1,3.4,0,5c0.2,2.3,0.8,4.4,1.9,6.4c0.5,0.8,1.1,1.6,1.8,2.3c0.7,0.7,1.1,0.7,1.9,0.1
				c0.5-0.4,1-0.8,1.4-1.3c0.7-0.8,1.4-1.6,2-2.5c1.7-2.3,3.2-4.6,5-6.8C155.3,305.2,155.5,303.9,155.7,302.2z M201.3,336.5
				c2.4-2.7,4.4-10.9,3.4-14c-0.1,0.1-0.2,0.2-0.3,0.3c-1.6,2.1-2.9,4.4-3.7,6.9c-0.4,1.3-0.6,2.6-0.6,3.9
				C200.2,334.8,200.3,335.8,201.3,336.5z"/>
			<path class="st8" d="M228.6,278.6c0,2.5-1.4,4-3.6,4.5c-2,0.4-3.7-0.5-4.5-2.4c-0.5-1.2-0.7-2.4-0.2-3.7c0.6-1.8,2.1-2.9,4.1-3
				c1,0,1.9,0.3,2.6,1C227.9,276.2,228.5,277.5,228.6,278.6z"/>
		</g>
		<g>
			<path class="st8" d="M223,129.4c-0.1,0.2-0.1,0.4-0.1,0.5c-0.4,5.3,0.5,10.2,3.3,14.8c0.6,1,1.3,1.8,2.2,2.5
				c1.3,1,2.7,1.1,4.1,0.2c0.6-0.4,1.3-0.9,1.8-1.5c1.2-1.5,2.4-2.9,3.3-4.5c1.7-2.9,3.6-5.7,5.5-8.5c0.4-0.6,0.9-1.2,1.7-1.3
				c0.4,0,0.8,0,1.1,0.1c0.8,0.2,1.1,0.8,0.8,1.6c-0.3,0.7-0.7,1.4-1,2.1c-1,2.2-2,4.5-3.1,6.7c-1,2.1-2.3,4-3.9,5.8
				c-1.9,2.2-4.3,3.7-7.1,4.3c-3.5,0.7-6.6-0.1-9.4-2.2c-2.5-1.9-4.1-4.4-5.2-7.3c-1-2.5-1.4-5.1-1.6-7.8c0-0.2,0-0.3-0.1-0.7
				c-0.3,0.3-0.4,0.5-0.6,0.7c-3.4,4.8-7.4,9.1-12.3,12.3c-0.5,0.3-0.6,0.6-0.5,1.1c0.1,0.9,0.3,1.8,0.3,2.7c0,0.7,0.4,1,0.9,1.3
				c4.4,2.7,8.5,5.8,12.2,9.4c2.6,2.5,4.8,5.4,6.6,8.5c2.5,4.2,3.8,8.7,3.6,13.6c-0.1,2.8-0.8,5.5-2.6,7.8c-2.5,3.2-6.2,4.2-9.9,2.6
				c-2.4-1.1-4.4-2.8-6.2-4.7c-2.5-2.6-4.3-5.6-5.7-9c-1.9-4.7-3.3-9.5-4.2-14.5c-0.7-4.1-1.3-8.3-2-12.4c0-0.3-0.1-0.6-0.2-1
				c-1.1-0.4-2.2-0.7-3.3-1.1c-0.3-0.1-0.7-0.1-1,0c-2,0.1-4.1,0.4-6.1-0.2c-0.9-0.3-1.7-0.6-2.5-1c-1.5-0.9-1.6-2.5-0.1-3.5
				c1.2-0.8,2.5-0.9,3.9-0.7c1.5,0.3,3,0.6,4.4,1.1c1.4,0.5,2.8,0.3,4.2-0.2c-0.2-2.9-0.4-5.9-0.6-9c-0.4,0.2-0.8,0.4-1.1,0.6
				c-3,1.6-6.2,2.3-9.6,1.8c-3.9-0.6-6.9-2.7-8.9-6.1c-0.5-0.9-0.9-1.9-1.4-2.9c-0.4,0.2-0.4,0.6-0.5,0.9c-1.4,3.9-2.8,7.8-4.2,11.6
				c-1.2,3-2.5,5.9-4.2,8.6c-1.1,1.8-2.4,3.5-4.1,4.9c-2.2,1.9-4.7,3-7.7,3c-3.2,0-5.9-1.3-8.1-3.5c-2-2-3.6-4.3-4.8-6.9
				c-2-4-3.2-8.3-4.2-12.7c0-0.2-0.1-0.4-0.1-0.6c0-0.1-0.1-0.1-0.2-0.3c-0.4,0.2-0.8,0.4-1.2,0.6c-2.8,1.5-5.7,2.3-8.8,2.3
				c-1.5,0-3-0.2-4.4-1c-0.4-0.2-0.9-0.5-0.8-1.1c0.1-0.6,0.5-0.9,1.1-1c0.5-0.1,1-0.1,1.5,0c3.2,0.7,6.2,0.1,9-1.3
				c1-0.5,2.1-1.1,3.1-1.6c0-0.4-0.1-0.8-0.1-1.2c-0.3-2.9-0.6-5.9-0.8-8.8c-0.3-4.1-0.2-8.2,0-12.3c0.6-9.4,2.4-18.5,6.3-27.1
				c1.4-3.1,3-6,5.2-8.5c2.4-2.8,5.3-4.9,9.1-5.6c5-0.9,9.2,0.5,12.3,4.6c1.9,2.4,2.8,5.2,3.2,8.3c0.6,5.3-0.4,10.3-2.4,15.2
				c-4.9,11.6-11.6,21.9-20.8,30.6c-1.4,1.4-3,2.6-4.6,4c0.2,0.9,0.3,1.9,0.5,2.9c1,4.8,2.4,9.4,4.7,13.7c0.9,1.8,2,3.5,3.5,5
				c0.5,0.5,1.2,1,1.8,1.4c1,0.6,2,0.6,3,0c0.7-0.5,1.5-1,2.1-1.6c1.5-1.4,2.6-3,3.5-4.8c1.5-3,3-6,4.3-9.1c2.1-5,4-10.1,6.1-15.2
				c0.2-0.6,0.3-1.1,0.3-1.7c-0.2-3.8,0.2-7.5,1.2-11.1c0.2-0.8,0.6-1.5,1-2.2c0.9-1.4,2.2-2,3.9-2c1.5,0.1,2.4,0.9,2.3,2.4
				c0,0.8-0.2,1.7-0.3,2.5c-0.5,3.2-0.9,6.3-0.7,9.6c0.2,2.7,0.6,5.4,1.7,7.9c0.6,1.4,1.3,2.6,2.3,3.8c1.8,2.1,4.2,2.8,6.7,1.6
				c1.3-0.6,2.4-1.4,3.6-2.1c0.4-0.2,0.5-0.6,0.4-1c-0.1-2-0.2-4.1-0.3-6.1c-0.1-4.3-0.3-8.7-0.2-13c0.1-3.8,0.4-7.7,0.8-11.5
				c0.8-7.6,2.2-15,5-22.2c1.5-3.7,3.3-7.1,6-10c1.4-1.5,2.9-2.9,4.7-3.9c4.6-2.4,9.5-1.2,12.3,3.2c1.4,2.2,2.1,4.7,2.4,7.2
				c0.8,6.8-0.1,13.5-2.4,19.9c-3.9,11-9.4,21.2-16.4,30.6c-1.2,1.6-2.6,3.1-3.9,4.7c-0.3,0.4-0.5,0.7-0.5,1.2
				c0.2,3.4,0.4,6.7,0.6,10.1c0,0.1,0,0.1,0.1,0.3c0.2-0.1,0.5-0.2,0.7-0.4c2.8-2,5.2-4.5,7.3-7.3c1.1-1.5,2.2-3.1,3.3-4.6
				c0.8-1,1.6-1.9,2.4-2.9c0.2-0.3,0.4-0.6,0.4-0.9c0.5-2.6,1.2-5.2,2.3-7.7c1.3-3,3.1-5.6,5.7-7.6c2.7-2.1,5.8-3.3,9.3-3.2
				c2.9,0.1,5.5,1.1,7.5,3.4c2.1,2.3,2.5,5,1.3,7.8c-0.7,1.7-1.9,3.1-3.4,4.3c-4.1,3.4-8.7,5.2-14.1,5.2
				C224.1,129.4,223.6,129.4,223,129.4z M141.1,128.7c0.4-0.3,0.6-0.5,0.8-0.7c2.1-2.1,4.2-4.1,6.1-6.2c4.6-5.3,8.4-11.2,11.7-17.4
				c2-3.8,3.8-7.7,4.8-11.9c0.9-3.7,1.2-7.5,0.3-11.3c-0.6-2.4-1.6-4.7-3.5-6.4c-2.1-1.9-4.5-2.1-6.9-0.5c-1,0.7-2,1.6-2.8,2.6
				c-2.2,2.6-3.8,5.5-5.1,8.6c-3.6,8-5.3,16.4-5.9,25.1c-0.3,4.6-0.2,9.2,0,13.8C140.8,125.9,141,127.2,141.1,128.7z M200.6,126
				c0.1,0,0.1,0,0.2,0c0.3-0.3,0.5-0.6,0.8-1c7.4-9.4,12.7-19.9,16.5-31.2c1.7-5.2,2.5-10.4,2-15.9c-0.2-1.9-0.6-3.8-1.3-5.6
				c-0.5-1.3-1.2-2.4-2.3-3.3c-1.2-1-2-1-3.2-0.2c-0.6,0.4-1.1,0.8-1.6,1.4c-0.9,1.2-1.8,2.3-2.6,3.6c-1.6,2.7-2.8,5.5-3.8,8.4
				c-3,8.7-4.2,17.6-4.8,26.7c-0.3,5.3-0.2,10.6,0,15.8C200.5,125.2,200.6,125.6,200.6,126z M203.2,157.3c0,0.5,0.1,0.9,0.1,1.3
				c0.4,2.2,0.8,4.5,1.2,6.7c0.9,4.6,2.1,9.1,4,13.4c1.6,3.7,3.5,7.1,6.2,10.1c0.7,0.7,1.4,1.3,2.3,1.9c0.7,0.5,1.1,0.4,1.8-0.3
				c0.8-0.8,1.3-1.8,1.6-2.9c0.7-2.2,0.6-4.4,0.3-6.6c-0.6-4.3-2.3-8.1-4.8-11.7c-3.3-4.6-7.5-8.4-12.1-11.7
				C203.6,157.4,203.4,157.4,203.2,157.3z M223.5,126.2c0.2,0.1,0.3,0.1,0.4,0.1c0.6,0,1.3,0,1.9,0c3.8,0.1,7-1.4,9.9-3.8
				c0.9-0.8,1.7-1.7,2.1-2.8c1.6-4-2.3-7-5.2-6.6c-1.2,0.2-2.2,0.8-3.1,1.6C226,117.7,224.5,121.8,223.5,126.2z"/>
			<path class="st8" d="M178.3,96.7c2,0,3.5,1.1,4,2.9c0.6,2-0.1,3.7-1.8,4.7c-0.8,0.5-1.6,0.7-2.5,0.8c-1.9,0.1-3.4-0.9-4-2.8
				c-0.6-1.9-0.1-3.6,1.4-4.7C176.3,96.9,177.3,96.6,178.3,96.7z"/>
		</g>
	</g>
</g>
</svg>
